<svg width="24" height="24" viewBox="0 0 24 24" fill="none" xmlns="http://www.w3.org/2000/svg">
<path d="M4.73018 11.5268L6.52576 7.86161C6.73814 7.42811 6.84432 7.21137 7.00428 7.05291C7.14572 6.9128 7.31675 6.80614 7.5048 6.74076C7.71747 6.66683 7.95883 6.66683 8.44155 6.66683H15.5573C16.0404 6.66683 16.2819 6.66683 16.4947 6.74086C16.6829 6.80633 16.854 6.91313 16.9955 7.05342C17.1555 7.21208 17.2616 7.42908 17.4738 7.86309L19.2779 11.553" stroke="#999999" stroke-width="1.33333" stroke-linecap="round" stroke-linejoin="round"/>
<path d="M4.66675 11.5557V10.9446C4.32924 10.9446 4.05564 11.2182 4.05564 11.5557H4.66675ZM8.54206 11.5557L9.11824 11.352C9.03193 11.1078 8.80106 10.9446 8.54206 10.9446V11.5557ZM4.81207 16.9388L4.26757 17.2162H4.26757L4.81207 16.9388ZM5.39476 17.5215L5.6722 16.9769H5.6722L5.39476 17.5215ZM18.6054 17.5215L18.328 16.9769L18.328 16.9769L18.6054 17.5215ZM19.1881 16.9388L19.7326 17.2162L19.7326 17.2162L19.1881 16.9388ZM19.3334 11.5557H19.9445C19.9445 11.2182 19.6709 10.9446 19.3334 10.9446V11.5557ZM15.4581 11.5557V10.9446C15.1991 10.9446 14.9682 11.1078 14.8819 11.352L15.4581 11.5557ZM4.66675 12.1668H8.54206V10.9446H4.66675V12.1668ZM5.27786 15.5334V11.5557H4.05564V15.5334H5.27786ZM5.35658 16.6613C5.33513 16.6192 5.30907 16.544 5.294 16.3594C5.27833 16.1677 5.27786 15.9169 5.27786 15.5334H4.05564C4.05564 15.8967 4.05516 16.2059 4.07583 16.4589C4.09709 16.7191 4.14369 16.9731 4.26757 17.2162L5.35658 16.6613ZM5.6722 16.9769C5.5363 16.9077 5.42582 16.7972 5.35658 16.6613L4.26757 17.2162C4.45399 17.5821 4.75145 17.8795 5.11732 18.066L5.6722 16.9769ZM6.80008 17.0557C6.41663 17.0557 6.16579 17.0552 5.97411 17.0395C5.78957 17.0245 5.7143 16.9984 5.6722 16.9769L5.11732 18.066C5.36044 18.1898 5.61446 18.2364 5.87459 18.2577C6.12758 18.2784 6.4368 18.2779 6.80008 18.2779V17.0557ZM17.2001 17.0557H6.80008V18.2779H17.2001V17.0557ZM18.328 16.9769C18.2859 16.9984 18.2106 17.0245 18.026 17.0395C17.8344 17.0552 17.5835 17.0557 17.2001 17.0557V18.2779C17.5634 18.2779 17.8726 18.2784 18.1256 18.2577C18.3857 18.2364 18.6397 18.1898 18.8828 18.066L18.328 16.9769ZM18.6436 16.6613C18.5743 16.7972 18.4639 16.9077 18.328 16.9769L18.8828 18.066C19.2487 17.8795 19.5462 17.5821 19.7326 17.2162L18.6436 16.6613ZM18.7223 15.5334C18.7223 15.9169 18.7218 16.1677 18.7062 16.3594C18.6911 16.544 18.665 16.6192 18.6436 16.6613L19.7326 17.2162C19.8565 16.9731 19.9031 16.7191 19.9243 16.4589C19.945 16.2059 19.9445 15.8967 19.9445 15.5334H18.7223ZM18.7223 11.5557V15.5334H19.9445V11.5557H18.7223ZM15.4581 12.1668H19.3334V10.9446H15.4581V12.1668ZM14.8819 11.352C14.4622 12.5396 13.3295 13.389 12.0001 13.389V14.6112C13.8636 14.6112 15.4473 13.42 16.0343 11.7593L14.8819 11.352ZM12.0001 13.389C10.6706 13.389 9.53799 12.5396 9.11824 11.352L7.96588 11.7593C8.55284 13.42 10.1366 14.6112 12.0001 14.6112V13.389Z" fill="#999999"/>
</svg>
