<svg width="18" height="18" viewBox="0 0 18 18" fill="none" xmlns="http://www.w3.org/2000/svg">
<path d="M3.54758 8.64494L4.89426 5.89608C5.05354 5.57096 5.13318 5.4084 5.25315 5.28956C5.35923 5.18448 5.4875 5.10448 5.62854 5.05545C5.78804 5 5.96906 5 6.3311 5H11.6679C12.0302 5 12.2114 5 12.371 5.05553C12.5121 5.10463 12.6405 5.18473 12.7466 5.28995C12.8665 5.40894 12.9461 5.57169 13.1053 5.8972L14.4584 8.66461"  stroke-linecap="round" stroke-linejoin="round"/>
<path d="M3.5 8.66667V8.20834C3.24687 8.20834 3.04167 8.41354 3.04167 8.66667H3.5ZM6.40648 8.66667L6.83862 8.51393C6.77388 8.33079 6.60073 8.20834 6.40648 8.20834V8.66667ZM3.60899 12.704L4.01737 12.4959H4.01737L3.60899 12.704ZM4.04601 13.141L4.25409 12.7326H4.25409L4.04601 13.141ZM13.954 13.141L14.1621 13.5494H14.1621L13.954 13.141ZM14.391 12.704L13.9826 12.4959L13.9826 12.4959L14.391 12.704ZM14.5 8.66667H14.9583C14.9583 8.41354 14.7531 8.20834 14.5 8.20834V8.66667ZM11.5935 8.66667V8.20834C11.3993 8.20834 11.2261 8.33079 11.1614 8.51393L11.5935 8.66667ZM3.5 9.12501H6.40648V8.20834H3.5V9.12501ZM3.95833 11.65V8.66667H3.04167V11.65H3.95833ZM4.01737 12.4959C4.00128 12.4643 3.98174 12.4079 3.97044 12.2695C3.95869 12.1257 3.95833 11.9376 3.95833 11.65H3.04167C3.04167 11.9225 3.04131 12.1544 3.05681 12.3441C3.07275 12.5392 3.10771 12.7297 3.20062 12.9121L4.01737 12.4959ZM4.25409 12.7326C4.15217 12.6807 4.0693 12.5978 4.01737 12.4959L3.20062 12.9121C3.34043 13.1865 3.56353 13.4096 3.83793 13.5494L4.25409 12.7326ZM5.1 12.7917C4.81241 12.7917 4.62428 12.7913 4.48053 12.7796C4.34212 12.7683 4.28566 12.7487 4.25409 12.7326L3.83793 13.5494C4.02027 13.6423 4.21078 13.6773 4.40588 13.6932C4.59562 13.7087 4.82754 13.7083 5.1 13.7083V12.7917ZM12.9 12.7917H5.1V13.7083H12.9V12.7917ZM13.7459 12.7326C13.7143 12.7487 13.6579 12.7683 13.5195 12.7796C13.3757 12.7913 13.1876 12.7917 12.9 12.7917V13.7083C13.1725 13.7083 13.4044 13.7087 13.5941 13.6932C13.7892 13.6773 13.9797 13.6423 14.1621 13.5494L13.7459 12.7326ZM13.9826 12.4959C13.9307 12.5978 13.8478 12.6807 13.7459 12.7326L14.1621 13.5494C14.4365 13.4096 14.6596 13.1865 14.7994 12.9121L13.9826 12.4959ZM14.0417 11.65C14.0417 11.9376 14.0413 12.1257 14.0296 12.2695C14.0183 12.4079 13.9987 12.4643 13.9826 12.4959L14.7994 12.9121C14.8923 12.7297 14.9272 12.5392 14.9432 12.3441C14.9587 12.1544 14.9583 11.9225 14.9583 11.65H14.0417ZM14.0417 8.66667V11.65H14.9583V8.66667H14.0417ZM11.5935 9.12501H14.5V8.20834H11.5935V9.12501ZM11.1614 8.51393C10.8466 9.40463 9.99709 10.0417 9 10.0417V10.9583C10.3976 10.9583 11.5854 10.0649 12.0257 8.81941L11.1614 8.51393ZM9 10.0417C8.00291 10.0417 7.15343 9.40463 6.83862 8.51393L5.97435 8.81941C6.41457 10.0649 7.60236 10.9583 9 10.9583V10.0417Z" fill="#999999"/>
</svg>
