<svg width="24" height="24" viewBox="0 0 24 24" fill="none" xmlns="http://www.w3.org/2000/svg">
<path d="M5.33325 7.46719C5.33325 6.72005 5.33325 6.34648 5.47858 6.06126C5.60641 5.81038 5.81038 5.60641 6.06126 5.47858C6.34648 5.33325 6.71985 5.33325 7.46659 5.33325H16.5333C17.28 5.33325 17.6534 5.33325 17.9386 5.47858C18.1895 5.60641 18.3934 5.81038 18.5213 6.06126C18.6666 6.34648 18.6666 6.71985 18.6666 7.46659V14.6285C18.6666 15.3752 18.6666 15.7486 18.5213 16.0338C18.3934 16.2847 18.1895 16.4887 17.9386 16.6165C17.6534 16.7618 17.28 16.7618 16.5334 16.7618C13.9391 16.7618 11.1703 16.7618 10.113 16.7618C9.94771 16.7618 9.86507 16.7618 9.7828 16.7721C9.70972 16.7812 9.63752 16.7964 9.56695 16.8174C9.48749 16.8411 9.41092 16.8748 9.25777 16.9421L6.82903 18.0093C6.33024 18.2285 6.08084 18.3381 5.87963 18.3012C5.70378 18.2689 5.54826 18.1674 5.44799 18.0194C5.33325 17.85 5.33325 17.5774 5.33325 17.0323C5.33325 12.803 5.33325 11.5023 5.33325 7.46719Z" stroke="#999999" stroke-width="1.33333"/>
<circle cx="9.33333" cy="10.6666" r="1.33333" fill="#999999"/>
<circle cx="14.6666" cy="10.6666" r="1.33333" fill="#999999"/>
</svg>
