<svg width="18" height="18" viewBox="0 0 18 18" fill="none" xmlns="http://www.w3.org/2000/svg">
<path d="M4 5.60045C4 5.0401 4 4.75992 4.10899 4.54601C4.20487 4.35785 4.35785 4.20487 4.54601 4.10899C4.75992 4 5.03995 4 5.6 4H12.4C12.9601 4 13.2401 4 13.454 4.10899C13.6422 4.20487 13.7951 4.35785 13.891 4.54601C14 4.75992 14 5.03995 14 5.6V10.9714C14 11.5315 14 11.8115 13.891 12.0254C13.7951 12.2136 13.6422 12.3666 13.454 12.4624C13.2401 12.5714 12.9601 12.5714 12.4001 12.5714C10.4544 12.5714 8.3778 12.5714 7.5848 12.5714C7.46084 12.5714 7.39886 12.5714 7.33716 12.5791C7.28235 12.586 7.2282 12.5973 7.17527 12.6131C7.11568 12.6309 7.05825 12.6561 6.94339 12.7066L5.12184 13.507C4.74774 13.6714 4.56069 13.7536 4.40979 13.7259C4.2779 13.7017 4.16126 13.6256 4.08605 13.5146C4 13.3876 4 13.1831 4 12.7743C4 9.60235 4 8.62679 4 5.60045Z" />
<circle cx="7" cy="8" r="1" fill="#999999"/>
<circle cx="11" cy="8" r="1" fill="#999999"/>
</svg>
