<svg width="36" height="36" viewBox="0 0 36 36" fill="none" xmlns="http://www.w3.org/2000/svg">
<path d="M12.7439 11.0912H19.0223C20.3855 11.0912 21.4607 11.4176 22.2287 12.0704C22.9391 12.6848 23.3039 13.5104 23.3039 14.5472C23.3039 15.3152 23.1119 15.968 22.7471 16.5056C22.3823 17.0048 21.8639 17.3696 21.1727 17.6384C22.0751 17.8112 22.7471 18.176 23.2079 18.7328C23.6495 19.2704 23.8799 20.0192 23.8799 20.9408C23.8799 22.3232 23.3999 23.3408 22.4591 23.9936C21.6527 24.5312 20.5007 24.8 19.0415 24.8H12.7439V11.0912ZM14.9903 12.9344V16.8512H18.4271C19.3871 16.8512 20.0591 16.6784 20.4623 16.3712C20.8463 16.0448 21.0575 15.5264 21.0575 14.816C21.0575 14.1632 20.8463 13.6832 20.4623 13.3952C20.0399 13.088 19.3871 12.9344 18.4655 12.9344H14.9903ZM14.9903 18.6944V22.9568H18.7151C19.5599 22.9568 20.2319 22.8224 20.7119 22.5536C21.3263 22.208 21.6335 21.6704 21.6335 20.9024C21.6335 20.1152 21.4031 19.5584 20.9615 19.2128C20.5007 18.8672 19.7711 18.6944 18.7727 18.6944H14.9903Z" fill="#999999"/>
</svg>
