<svg width="30" height="31" viewBox="0 0 30 31" fill="none" xmlns="http://www.w3.org/2000/svg">
<path d="M10.62 10.076H15.852C16.988 10.076 17.884 10.348 18.524 10.892C19.116 11.404 19.42 12.092 19.42 12.956C19.42 13.596 19.26 14.14 18.956 14.588C18.652 15.004 18.22 15.308 17.644 15.532C18.396 15.676 18.956 15.98 19.34 16.444C19.708 16.892 19.9 17.516 19.9 18.284C19.9 19.436 19.5 20.284 18.716 20.828C18.044 21.276 17.084 21.5 15.868 21.5H10.62V10.076ZM12.492 11.612V14.876H15.356C16.156 14.876 16.716 14.732 17.052 14.476C17.372 14.204 17.548 13.772 17.548 13.18C17.548 12.636 17.372 12.236 17.052 11.996C16.7 11.74 16.156 11.612 15.388 11.612H12.492ZM12.492 16.412V19.964H15.596C16.3 19.964 16.86 19.852 17.26 19.628C17.772 19.34 18.028 18.892 18.028 18.252C18.028 17.596 17.836 17.132 17.468 16.844C17.084 16.556 16.476 16.412 15.644 16.412H12.492Z" fill="#999999"/>
</svg>
