<svg width="24" height="24" viewBox="0 0 24 24" fill="none" xmlns="http://www.w3.org/2000/svg">
<path d="M18.6667 5.33333L10.6667 13.3333" stroke="#999999" stroke-width="1.33333" stroke-linecap="round"/>
<path d="M13.3333 5.33333H9.59992C8.10644 5.33333 7.35971 5.33333 6.78928 5.62398C6.28751 5.87964 5.87956 6.28759 5.6239 6.78936C5.33325 7.35979 5.33325 8.10653 5.33325 9.6V14.4C5.33325 15.8935 5.33325 16.6402 5.6239 17.2106C5.87956 17.7124 6.28751 18.1204 6.78928 18.376C7.35971 18.6667 8.10644 18.6667 9.59992 18.6667H14.3999C15.8934 18.6667 16.6401 18.6667 17.2106 18.376C17.7123 18.1204 18.1203 17.7124 18.3759 17.2106C18.6666 16.6402 18.6666 15.8935 18.6666 14.4V10.6667" stroke="#999999" stroke-width="1.33333" stroke-linecap="round"/>
</svg>
