<svg width="18" height="18" viewBox="0 0 18 18" fill="none" xmlns="http://www.w3.org/2000/svg">
<path d="M14 4L8 10"  stroke-linecap="round"/>
<path d="M10 4H7.2C6.07989 4 5.51984 4 5.09202 4.21799C4.71569 4.40973 4.40973 4.71569 4.21799 5.09202C4 5.51984 4 6.0799 4 7.2V10.8C4 11.9201 4 12.4802 4.21799 12.908C4.40973 13.2843 4.71569 13.5903 5.09202 13.782C5.51984 14 6.07989 14 7.2 14H10.8C11.9201 14 12.4802 14 12.908 13.782C13.2843 13.5903 13.5903 13.2843 13.782 12.908C14 12.4802 14 11.9201 14 10.8V8"  stroke-linecap="round"/>
</svg>
