<svg width="24" height="24" viewBox="0 0 24 24" fill="none" xmlns="http://www.w3.org/2000/svg">
<path d="M18.6665 5.33325L10.6665 13.3333" stroke="#FFAC0A" stroke-width="1.33333" stroke-linecap="round"/>
<path d="M13.3335 5.33325H9.60016C8.10669 5.33325 7.35995 5.33325 6.78952 5.6239C6.28776 5.87956 5.87981 6.28751 5.62415 6.78928C5.3335 7.35971 5.3335 8.10645 5.3335 9.59992V14.3999C5.3335 15.8934 5.3335 16.6401 5.62415 17.2106C5.87981 17.7123 6.28776 18.1203 6.78952 18.3759C7.35995 18.6666 8.10669 18.6666 9.60016 18.6666H14.4002C15.8936 18.6666 16.6404 18.6666 17.2108 18.3759C17.7126 18.1203 18.1205 17.7123 18.3762 17.2106C18.6668 16.6401 18.6668 15.8934 18.6668 14.3999V10.6666" stroke="#FFAC0A" stroke-width="1.33333" stroke-linecap="round"/>
</svg>
