<svg width="18" height="18" viewBox="0 0 18 18" fill="none" xmlns="http://www.w3.org/2000/svg">
<path d="M10.98 3H7.02C5.78788 3 5.17183 3 4.70122 3.21799C4.28726 3.40973 3.95071 3.71569 3.73979 4.09202C3.5 4.51984 3.5 5.0799 3.5 6.2V11.8C3.5 12.9201 3.5 13.4802 3.73979 13.908C3.95071 14.2843 4.28726 14.5903 4.70122 14.782C5.17183 15 5.78788 15 7.02 15H10.98C12.2121 15 12.8282 15 13.2988 14.782C13.7127 14.5903 14.0493 14.2843 14.2602 13.908C14.5 13.4802 14.5 12.9201 14.5 11.8L14.4999 6C14.4991 5.01165 14.4853 4.49359 14.2602 4.09202C14.0493 3.71569 13.7127 3.40973 13.2988 3.21799C12.8282 3 12.2121 3 10.98 3Z" />
<path fill-rule="evenodd" clip-rule="evenodd" d="M10.7111 7.25V10.75H11.5388V9.58333H12.7804V8.80555H11.5388V8.02779H13.0834V7.25002H11.5388V7.25H10.7111ZM6.15837 7.25002H4.91675V7.6389V9.58334V10.75H5.7445V9.58334H6.15837C6.8441 9.58334 7.4 9.06101 7.4 8.41668C7.4 7.77235 6.8441 7.25002 6.15837 7.25002ZM5.7445 8.80557H6.15837C6.38695 8.80557 6.57225 8.63145 6.57225 8.41668C6.57225 8.2019 6.38695 8.02779 6.15837 8.02779H5.7445V8.80557ZM7.81392 7.25002H8.43473C9.46332 7.25002 10.2972 8.03351 10.2972 9.00001C10.2972 9.9665 9.46332 10.75 8.43473 10.75H7.81392V7.25002ZM8.64167 9.95278C9.11395 9.8627 9.46942 9.47036 9.46942 9.00001C9.46942 8.52966 9.11395 8.13732 8.64167 8.04724V9.95278Z" fill="#999999"/>
</svg>
