<svg width="30" height="30" viewBox="0 0 30 30" fill="none" xmlns="http://www.w3.org/2000/svg">
<rect x="7" y="7" width="16" height="16" rx="4" stroke="#FFAC0A" stroke-width="1.5" stroke-miterlimit="10" stroke-linecap="round"/>
<path d="M10.33 17V13.53H11.68C12.775 13.53 13.115 13.87 13.115 14.765C13.115 15.74 12.72 16.055 11.68 16.055H11.325V17H10.33ZM11.325 15.265H11.535C11.95 15.265 12.1 15.155 12.1 14.79C12.1 14.405 11.94 14.295 11.535 14.295H11.325V15.265ZM13.6357 13.53H14.9657C16.0057 13.53 16.6707 13.82 16.6707 15.265C16.6707 16.605 16.0057 17 14.9657 17H13.6357V13.53ZM14.6307 16.15H14.9057C15.4857 16.15 15.6357 15.96 15.6357 15.265C15.6357 14.54 15.4657 14.36 14.9057 14.36H14.6307V16.15ZM19.5188 14.39H18.2488V14.95H19.4138V15.8H18.2488V17H17.2538V13.53H19.5188V14.39Z" fill="#FFAC0A"/>
</svg>
