<svg width="44" height="26" viewBox="0 0 44 26" fill="none" xmlns="http://www.w3.org/2000/svg">
<rect width="44" height="26" rx="6" fill="#FFAC0A"/>
<path d="M28.8544 7.14567C28.7177 7.0091 28.5141 6.96377 28.3324 7.03013L16.3271 11.4045C16.1306 11.4761 15.9999 11.6628 16 11.872C16.0001 12.0812 16.1312 12.268 16.3277 12.3393L21.1992 14.107L23.2612 12.0451C23.4277 11.8786 23.6975 11.8786 23.8641 12.0451C24.0306 12.2117 24.0306 12.4814 23.8641 12.648L21.8447 14.6677L23.6607 19.6723C23.7321 19.8688 23.9188 19.9999 24.128 20H24.1283C24.3373 20 24.5241 19.8693 24.5955 19.6729L28.9699 7.66765C29.0361 7.48603 28.9911 7.28238 28.8544 7.14567Z" fill="white"/>
</svg>
