<svg width="18" height="18" viewBox="0 0 18 18" fill="none" xmlns="http://www.w3.org/2000/svg">
<g clip-path="url(#clip0_332_9703)">
<mask id="path-1-outside-1_332_9703" maskUnits="userSpaceOnUse" x="2" y="3" width="14" height="11" fill="black">
<rect fill="white" x="2" y="3" width="14" height="11"/>
<path d="M13.4 9.025C13.125 9.35 12.55 9.6 11.825 9.6C10.6 9.6 9.625 8.725 9.625 7.35C9.625 5.925 10.75 4.975 12.15 4.975C13.825 4.975 14.95 6.2 14.95 7.95C14.95 11.025 12.5 12.65 9.6 12.6V12.175C11.625 12.1 13.45 11.275 13.4 9.025ZM7.35 9.025C7.075 9.35 6.5 9.6 5.775 9.6C4.55 9.6 3.575 8.725 3.575 7.35C3.575 5.925 4.7 4.975 6.1 4.975C7.775 4.975 8.9 6.2 8.9 7.95C8.9 11.025 6.45 12.65 3.55 12.6V12.175C5.575 12.1 7.4 11.275 7.35 9.025Z"/>
</mask>
<path d="M13.4 9.025L14.3998 9.00278L14.3411 6.36463L12.6366 8.37906L13.4 9.025ZM9.6 12.6H8.6V13.5829L9.58276 13.5999L9.6 12.6ZM9.6 12.175L9.56299 11.1757L8.6 11.2114V12.175H9.6ZM7.35 9.025L8.34975 9.00278L8.29113 6.36463L6.58661 8.37906L7.35 9.025ZM3.55 12.6H2.55V13.5829L3.53276 13.5999L3.55 12.6ZM3.55 12.175L3.51299 11.1757L2.55 11.2114V12.175H3.55ZM12.6366 8.37906C12.637 8.37855 12.6233 8.39451 12.5859 8.41942C12.5491 8.4439 12.4954 8.47296 12.423 8.50075C12.2773 8.55666 12.0747 8.6 11.825 8.6V10.6C12.7372 10.6 13.6387 10.291 14.1634 9.67094L12.6366 8.37906ZM11.825 8.6C11.1373 8.6 10.625 8.15781 10.625 7.35H8.625C8.625 9.29219 10.0627 10.6 11.825 10.6V8.6ZM10.625 7.35C10.625 6.56301 11.2125 5.975 12.15 5.975V3.975C10.2875 3.975 8.625 5.28699 8.625 7.35H10.625ZM12.15 5.975C12.7321 5.975 13.1602 6.18161 13.4475 6.48903C13.7404 6.80243 13.95 7.28993 13.95 7.95H15.95C15.95 6.86006 15.5971 5.86007 14.9087 5.12347C14.2148 4.38089 13.2429 3.975 12.15 3.975V5.975ZM13.95 7.95C13.95 9.19444 13.4672 10.0792 12.7357 10.6677C11.9804 11.2754 10.8863 11.622 9.61724 11.6001L9.58276 13.5999C11.2137 13.628 12.7946 13.1871 13.9893 12.226C15.2078 11.2458 15.95 9.78056 15.95 7.95H13.95ZM10.6 12.6V12.175H8.6V12.6H10.6ZM9.63701 13.1743C10.7483 13.1332 11.9305 12.8857 12.8552 12.2323C13.8381 11.5377 14.4319 10.4502 14.3998 9.00278L12.4002 9.04722C12.4181 9.84975 12.1244 10.2998 11.701 10.599C11.2195 10.9393 10.4767 11.1418 9.56299 11.1757L9.63701 13.1743ZM6.58661 8.37906C6.58704 8.37855 6.5733 8.39451 6.53587 8.41942C6.49908 8.4439 6.44543 8.47296 6.373 8.50075C6.22728 8.55666 6.02469 8.6 5.775 8.6V10.6C6.68717 10.6 7.58871 10.291 8.11339 9.67094L6.58661 8.37906ZM5.775 8.6C5.08726 8.6 4.575 8.15781 4.575 7.35H2.575C2.575 9.29219 4.01274 10.6 5.775 10.6V8.6ZM4.575 7.35C4.575 6.56301 5.16248 5.975 6.1 5.975V3.975C4.23752 3.975 2.575 5.28699 2.575 7.35H4.575ZM6.1 5.975C6.68209 5.975 7.11021 6.18161 7.3975 6.48903C7.69038 6.80243 7.9 7.28993 7.9 7.95H9.9C9.9 6.86006 9.54712 5.86007 8.85875 5.12347C8.16479 4.38089 7.19291 3.975 6.1 3.975V5.975ZM7.9 7.95C7.9 9.19444 7.41722 10.0792 6.68568 10.6677C5.93036 11.2754 4.83633 11.622 3.56724 11.6001L3.53276 13.5999C5.16367 13.628 6.74464 13.1871 7.93932 12.226C9.15778 11.2458 9.9 9.78056 9.9 7.95H7.9ZM4.55 12.6V12.175H2.55V12.6H4.55ZM3.58701 13.1743C4.69829 13.1332 5.88054 12.8857 6.80524 12.2323C7.78809 11.5377 8.38192 10.4502 8.34975 9.00278L6.35025 9.04722C6.36808 9.84975 6.07441 10.2998 5.65101 10.599C5.16946 10.9393 4.42671 11.1418 3.51299 11.1757L3.58701 13.1743Z" fill="#999999" mask="url(#path-1-outside-1_332_9703)"/>
</g>
<defs>
<clipPath id="clip0_332_9703">
<rect width="18" height="18" fill="white"/>
</clipPath>
</defs>
</svg>
