<svg width="18" height="18" viewBox="0 0 18 18" fill="none" xmlns="http://www.w3.org/2000/svg">
<path d="M10.9263 3.64917H7.0737C5.875 3.64917 5.27565 3.64917 4.81781 3.84357C4.41508 4.01457 4.08765 4.28743 3.88245 4.62304C3.64917 5.00457 3.64917 5.50403 3.64917 6.50295V11.4971C3.64917 12.496 3.64917 12.9954 3.88245 13.377C4.08765 13.7126 4.41508 13.9854 4.81781 14.1564C5.27565 14.3508 5.875 14.3508 7.0737 14.3508H10.9263C12.125 14.3508 12.7243 14.3508 13.1822 14.1564C13.5849 13.9854 13.9123 13.7126 14.1175 13.377C14.3508 12.9954 14.3508 12.496 14.3508 11.4971L14.3508 6.32458C14.35 5.44317 14.3365 4.98116 14.1175 4.62304C13.9123 4.28743 13.5849 4.01457 13.1822 3.84357C12.7243 3.64917 12.125 3.64917 10.9263 3.64917Z" />
<path d="M6.75708 7.94444H11.5071"  stroke-linecap="round"/>
<path d="M6.49316 10.3194H11.2432"  stroke-linecap="round"/>
<path d="M10.7153 6.62498L9.65977 11.375"  stroke-linecap="round"/>
<path d="M8.34058 6.62498L7.28501 11.375"  stroke-linecap="round"/>
</svg>
