<svg width="24" height="24" viewBox="0 0 24 24" fill="none" xmlns="http://www.w3.org/2000/svg">
<path d="M14.5684 4.86548H9.43163C7.83336 4.86548 7.03423 4.86548 6.42377 5.12468C5.8868 5.35268 5.45023 5.71649 5.17663 6.16397C4.86559 6.67268 4.86559 7.33863 4.86559 8.67051V15.3293C4.86559 16.6612 4.86559 17.3272 5.17663 17.8359C5.45023 18.2833 5.8868 18.6472 6.42377 18.8752C7.03423 19.1344 7.83336 19.1344 9.43163 19.1344H14.5684C16.1667 19.1344 16.9658 19.1344 17.5763 18.8752C18.1132 18.6472 18.5498 18.2833 18.8234 17.8359C19.1345 17.3272 19.1345 16.6612 19.1345 15.3293L19.1344 8.4327C19.1333 7.25748 19.1154 6.64146 18.8234 6.16397C18.5498 5.71649 18.1132 5.35268 17.5763 5.12468C16.9658 4.86548 16.1667 4.86548 14.5684 4.86548Z" stroke="#999999" stroke-width="1.33333"/>
<path d="M9.00918 10.5925H15.3426" stroke="#999999" stroke-width="1.33333" stroke-linecap="round"/>
<path d="M8.6576 13.7593H14.991" stroke="#999999" stroke-width="1.33333" stroke-linecap="round"/>
<path d="M14.287 8.83325L12.8796 15.1666" stroke="#999999" stroke-width="1.33333" stroke-linecap="round"/>
<path d="M11.1206 8.83325L9.71313 15.1666" stroke="#999999" stroke-width="1.33333" stroke-linecap="round"/>
</svg>
