<svg width="24" height="24" viewBox="0 0 24 24" fill="none" xmlns="http://www.w3.org/2000/svg">
<path d="M14.5686 4.86548H9.43176C7.8335 4.86548 7.03437 4.86548 6.42391 5.12468C5.88694 5.35268 5.45037 5.71649 5.17677 6.16397C4.86572 6.67268 4.86572 7.33863 4.86572 8.67051V15.3293C4.86572 16.6612 4.86572 17.3272 5.17677 17.8359C5.45037 18.2833 5.88694 18.6472 6.42391 18.8752C7.03437 19.1344 7.8335 19.1344 9.43176 19.1344H14.5686C16.1668 19.1344 16.966 19.1344 17.5764 18.8752C18.1134 18.6472 18.55 18.2833 18.8236 17.8359C19.1346 17.3272 19.1346 16.6612 19.1346 15.3293L19.1345 8.4327C19.1334 7.25748 19.1155 6.64146 18.8236 6.16397C18.55 5.71649 18.1134 5.35268 17.5764 5.12468C16.966 4.86548 16.1668 4.86548 14.5686 4.86548Z" stroke="#FFAC0A" stroke-width="1.33333"/>
<path d="M9.00879 10.5925H15.3422" stroke="#FFAC0A" stroke-width="1.33333" stroke-linecap="round"/>
<path d="M8.65723 13.7593H14.9906" stroke="#FFAC0A" stroke-width="1.33333" stroke-linecap="round"/>
<path d="M14.2866 8.83325L12.8792 15.1666" stroke="#FFAC0A" stroke-width="1.33333" stroke-linecap="round"/>
<path d="M11.1201 8.83325L9.7127 15.1666" stroke="#FFAC0A" stroke-width="1.33333" stroke-linecap="round"/>
</svg>
