<svg width="24" height="24" viewBox="0 0 24 24" fill="none" xmlns="http://www.w3.org/2000/svg">
<path d="M6.8084 10.2664C6.75912 9.47801 6.73449 9.08382 6.8727 8.78048C6.99417 8.51389 7.20006 8.29473 7.45856 8.15687C7.75268 8 8.14764 8 8.93758 8H15.0626C15.8525 8 16.2475 8 16.5416 8.15687C16.8001 8.29473 17.006 8.51389 17.1275 8.78048C17.2657 9.08382 17.241 9.47801 17.1918 10.2664L16.7918 16.6664C16.7477 17.3707 16.7257 17.7228 16.5746 17.99C16.4415 18.2251 16.2401 18.4143 15.9971 18.5325C15.7211 18.6667 15.3682 18.6667 14.6626 18.6667H9.33758C8.63192 18.6667 8.27909 18.6667 8.00305 18.5325C7.76003 18.4143 7.55865 18.2251 7.42558 17.99C7.27443 17.7228 7.25242 17.3707 7.2084 16.6664L6.8084 10.2664Z" stroke="#999999" stroke-width="1.33333"/>
<path d="M6.66675 5.33333L17.3334 5.33333" stroke="#999999" stroke-width="1.33333" stroke-linecap="round"/>
<path d="M9.33325 5.33333C9.33325 4.59695 9.93021 4 10.6666 4H13.3333C14.0696 4 14.6666 4.59695 14.6666 5.33333H9.33325Z" fill="#999999"/>
</svg>
