<svg width="24" height="24" viewBox="0 0 24 24" fill="none" xmlns="http://www.w3.org/2000/svg">
<path d="M6.80815 10.2664C6.75888 9.47801 6.73424 9.08382 6.87246 8.78048C6.99393 8.51389 7.19982 8.29473 7.45831 8.15687C7.75243 8 8.1474 8 8.93733 8H15.0623C15.8523 8 16.2472 8 16.5414 8.15687C16.7999 8.29473 17.0057 8.51389 17.1272 8.78048C17.2654 9.08382 17.2408 9.47801 17.1915 10.2664L16.7915 16.6664C16.7475 17.3707 16.7255 17.7228 16.5743 17.99C16.4413 18.2251 16.2399 18.4143 15.9969 18.5325C15.7208 18.6667 15.368 18.6667 14.6623 18.6667H9.33733C8.63167 18.6667 8.27884 18.6667 8.0028 18.5325C7.75979 18.4143 7.55841 18.2251 7.42534 17.99C7.27418 17.7228 7.25217 17.3707 7.20815 16.6664L6.80815 10.2664Z" stroke="#FFAC0A" stroke-width="1.33333"/>
<path d="M6.6665 5.33325L17.3332 5.33325" stroke="#FFAC0A" stroke-width="1.33333" stroke-linecap="round"/>
<path d="M9.3335 5.33333C9.3335 4.59695 9.93045 4 10.6668 4H13.3335C14.0699 4 14.6668 4.59695 14.6668 5.33333H9.3335Z" fill="#FFAC0A"/>
</svg>
