<svg width="18" height="18" viewBox="0 0 18 18" fill="none" xmlns="http://www.w3.org/2000/svg">
<path d="M5.10624 7.69981C5.06928 7.10851 5.0508 6.81286 5.15447 6.58536C5.24557 6.38542 5.39999 6.22105 5.59386 6.11765C5.81445 6 6.11067 6 6.70312 6H11.2969C11.8893 6 12.1856 6 12.4061 6.11765C12.6 6.22105 12.7544 6.38542 12.8455 6.58536C12.9492 6.81286 12.9307 7.10851 12.8938 7.69981L12.5938 12.4998C12.5607 13.028 12.5442 13.2921 12.4309 13.4925C12.3311 13.6689 12.18 13.8107 11.9978 13.8994C11.7907 14 11.5261 14 10.9969 14H7.00312C6.47388 14 6.20925 14 6.00222 13.8994C5.81996 13.8107 5.66893 13.6689 5.56913 13.4925C5.45576 13.2921 5.43925 13.028 5.40624 12.4998L5.10624 7.69981Z" />
<path d="M5 4L13 4"  stroke-linecap="round"/>
<path d="M7 4C7 3.44772 7.44772 3 8 3H10C10.5523 3 11 3.44772 11 4H7Z" fill="#999999"/>
</svg>
