<svg width="30" height="30" viewBox="0 0 30 30" fill="none" xmlns="http://www.w3.org/2000/svg">
<path d="M21.6178 21.7872C22.4472 21.5936 22.9454 20.7634 22.7377 19.9375C22.1173 17.4709 20.4103 15.4585 18.1671 14.4625C17.1908 14.0364 16.1203 13.8073 15.0001 13.8073C13.8798 13.8073 12.8093 14.0364 11.833 14.4625C9.59002 15.4584 7.88397 17.4706 7.263 19.9369C7.05499 20.7631 7.55323 21.5938 8.38289 21.7874C8.96838 21.924 9.57698 21.9951 10.201 21.9951C11.453 21.9951 12.6358 21.7045 13.6861 21.183C14.505 20.7764 15.4949 20.7766 16.3138 21.1832C17.364 21.7046 18.5473 21.9951 19.7991 21.9951C20.4233 21.9951 21.0322 21.924 21.6178 21.7872Z" stroke="#FFAC0A" stroke-width="1.5" stroke-miterlimit="10"/>
<path d="M18.1985 13.8073C18.1985 11.698 17.4089 9.76192 16.123 8.30726C15.5218 7.62718 14.4781 7.62699 13.8768 8.30698C12.5905 9.76167 11.8016 11.6979 11.8016 13.8073V13.8073C11.8016 14.2009 11.5902 14.5644 11.245 14.7534C9.29381 15.8216 7.82849 17.6909 7.263 19.9369C7.05499 20.7631 7.55323 21.5938 8.38289 21.7874C8.96838 21.924 9.57698 21.9951 10.201 21.9951C12.0083 21.9951 13.6717 21.3895 15.0001 20.3578C16.776 18.9818 17.9918 16.8702 18.1671 14.4625C18.1828 14.2495 18.1985 14.0364 18.1985 13.8073Z" stroke="#FFAC0A" stroke-width="1.5" stroke-miterlimit="10"/>
<path d="M18.7551 14.7534C18.4098 14.5644 18.1985 14.2009 18.1985 13.8073V13.8073C18.1985 11.698 17.4089 9.76192 16.123 8.30726C15.5218 7.62718 14.4781 7.62699 13.8768 8.30698C12.5904 9.76167 11.8015 11.6979 11.8015 13.8073C11.8015 14.0364 11.8172 14.2495 11.8329 14.4625C12.0083 16.8702 13.2241 18.9818 15 20.3578C16.327 21.3895 17.9917 21.9951 19.799 21.9951C20.4233 21.9951 21.0321 21.924 21.6178 21.7872C22.4471 21.5936 22.9453 20.7634 22.7376 19.9375C22.1727 17.6912 20.7066 15.8217 18.7551 14.7534Z" stroke="#FFAC0A" stroke-width="1.5" stroke-miterlimit="10"/>
</svg>
