<svg width="31" height="30" viewBox="0 0 31 30" fill="none" xmlns="http://www.w3.org/2000/svg">
<path d="M22.7559 13.95C22.7659 13.822 22.7939 13.7 22.7939 13.569C22.7939 10.907 20.6359 8.74899 17.9739 8.74899C16.2629 8.74899 14.7699 9.64599 13.9149 10.99C13.4879 10.73 12.9919 10.571 12.4549 10.571C10.8989 10.571 9.63792 11.832 9.63792 13.388C9.63792 13.544 9.65892 13.693 9.68392 13.842C7.83792 13.943 6.36792 15.457 6.36792 17.328C6.36792 19.264 7.93692 20.834 9.87292 20.834H21.8729C23.8089 20.834 25.3789 19.264 25.3789 17.328C25.3789 15.699 24.2619 14.3956 22.7559 14.0016V13.95Z" stroke="#FFAC0A" stroke-width="1.5" stroke-miterlimit="10" stroke-linecap="round"/>
<path d="M12.1735 17.6696V15.0446L11.3335 15.2096V14.4096L12.3935 14.1996H13.1285V17.6696H12.1735ZM15.3765 17.7196C14.5565 17.7196 14.0465 17.3596 14.0465 15.9296C14.0465 14.5046 14.5565 14.1496 15.3765 14.1496C16.1965 14.1496 16.7015 14.5046 16.7015 15.9296C16.7015 17.3596 16.1965 17.7196 15.3765 17.7196ZM15.3765 16.9096C15.6915 16.9096 15.7815 16.7346 15.7815 15.9346C15.7815 15.1296 15.6915 14.9496 15.3765 14.9496C15.0715 14.9496 14.9715 15.1296 14.9715 15.9346C14.9715 16.7346 15.0715 16.9096 15.3765 16.9096ZM18.8943 17.7196C17.7793 17.7196 17.1243 17.3896 17.1243 15.9346C17.1243 14.5946 17.8093 14.1496 18.9043 14.1496C19.2393 14.1496 19.6493 14.1996 19.8543 14.2646V15.1296C19.5743 15.0346 19.2543 14.9896 18.9893 14.9896C18.4093 14.9896 18.2243 15.2396 18.2243 15.9346C18.2243 16.6596 18.3243 16.8946 18.9443 16.8946C19.0793 16.8946 19.0893 16.8946 19.1643 16.8896V16.3846H18.6543V15.5546H20.0793V17.5596C19.8143 17.6396 19.3193 17.7196 18.8943 17.7196Z" fill="#FFAC0A"/>
</svg>
