<svg width="30" height="30" viewBox="0 0 30 30" fill="none" xmlns="http://www.w3.org/2000/svg">
<rect x="8" y="8" width="14" height="14" rx="3" stroke="#999999" stroke-width="1.5" stroke-miterlimit="10" stroke-linecap="round"/>
<path d="M16.7143 11H17.4C17.9601 11 18.2401 11 18.454 11.109C18.6422 11.2049 18.7951 11.3578 18.891 11.546C19 11.7599 19 12.0399 19 12.6V13.2857M13.2857 11H12.6C12.0399 11 11.7599 11 11.546 11.109C11.3578 11.2049 11.2049 11.3578 11.109 11.546C11 11.7599 11 12.0399 11 12.6V13.2857M11 16.7143V17.4C11 17.9601 11 18.2401 11.109 18.454C11.2049 18.6422 11.3578 18.7951 11.546 18.891C11.7599 19 12.0399 19 12.6 19H13.2857M16.7143 19H17.4C17.9601 19 18.2401 19 18.454 18.891C18.6422 18.7951 18.7951 18.6422 18.891 18.454C19 18.2401 19 17.9601 19 17.4V16.7143" stroke="#999999" stroke-width="1.5" stroke-miterlimit="10" stroke-linecap="round"/>
</svg>
